<?xml version="1.0" standalone="no"?><!DOCTYPE svg PUBLIC "-//W3C//DTD SVG 1.1//EN" "http://www.w3.org/Graphics/SVG/1.1/DTD/svg11.dtd"><svg t="1709519522365" class="icon" viewBox="0 0 1024 1024" version="1.1" xmlns="http://www.w3.org/2000/svg" p-id="1265" xmlns:xlink="http://www.w3.org/1999/xlink" width="32" height="32"><path d="M511.914471 1024c-22.408624 0-79.747333-2.976413-87.638818-4.561552-116.821347-20.526984-221.383522-81.891262-286.92162-168.401096l-1.950064-2.554469c-2.360603-3.158875-4.641379-6.397577-6.899347-9.636279l-2.873778-4.1168c-2.007083-2.953605-3.945742-5.964229-5.872998-8.986258 0 0-2.349199-3.683453-3.215894-5.074726-1.756198-2.873778-3.421164-5.770363-5.14315-8.678353-1.459697-2.531661-2.372007-4.128205-3.26151-5.70194q-2.349199-4.208032-4.561552-8.461679c-1.140388-2.098314-2.178141-4.185224-3.215894-6.283538-1.379869-2.771143-2.70272-5.565093-4.002762-8.359044-1.026349-2.280776-2.041295-4.447513-3.022028-6.694077q-1.824621-4.128205-3.535203-8.313429-1.436889-3.512395-2.782547-7.047598c-1.060561-2.748335-2.08691-5.49667-3.079047-8.267813-0.866695-2.463238-1.687774-4.926476-2.508854-7.401118-0.900907-2.725527-1.801813-5.473862-2.634296-8.233601-0.741252-2.44043-1.425485-4.892265-2.109718-7.355503-0.889503-3.193086-1.619351-5.85019-2.280776-8.541506-0.570194-2.280776-1.083369-4.561552-1.596543-6.842328l-0.672829-2.987816c-0.478963-2.109718-0.957926-4.219436-1.37987-6.340558-0.478963-2.383411-0.889503-4.78963-1.300042-7.195848l-0.650021-3.672049c-0.319309-1.836025-0.650021-3.672049-0.923714-5.519478-0.387732-2.611489-0.707041-5.234381-1.014946-7.857274l-0.513174-4.093992c-0.20527-1.607947-0.399136-3.147471-0.55879-4.698399-0.319309-3.272914-0.547386-6.568635-0.76406-9.864356 0 0-0.444751-5.827383-0.501771-7.001983q-0.421944-8.507294-0.433348-17.10582l0.091232-2.714123-0.102635-2.976413c0-5.70194 0.159654-11.40388 0.444751-17.037396 0.057019-1.140388 0.501771-6.956367 0.501771-6.956367 0.239481-3.535203 0.444751-6.728289 0.76406-9.898568 0.159654-1.585139 0.364924-3.158875 0.55879-4.721206l0.50177-4.059782c0.319309-2.6457 0.638617-5.268593 1.02635-7.868677 0.273693-1.847429 0.604406-3.694857 0.923714-5.530882l0.650021-3.683453c0.41054-2.406219 0.832483-4.812437 1.300042-7.195848 0.421944-2.109718 0.900907-4.208032 1.37987-6.31775l0.376328-1.67637c0.76406-3.421164 1.300042-5.793171 1.893044-8.153774 0.684233-2.736931 1.448293-5.439651 2.200949-8.14237 0.809675-2.930797 1.482504-5.34842 2.212353-7.754639 0.832483-2.759739 1.73339-5.508074 2.634296-8.245005s1.664966-4.994899 2.508853-7.389714q1.482504-4.139608 3.079048-8.256409 1.357062-3.558011 2.782547-7.059002c1.140388-2.793951 2.280776-5.55369 3.535203-8.313429 0.980734-2.280776 1.995679-4.470321 3.022028-6.682673 1.300042-2.805354 2.622892-5.587901 4.002762-8.370448q1.562332-3.147471 3.20449-6.26073 2.212353-4.276455 4.561552-8.473083c1.071965-1.927256 2.178141-3.843108 3.284317-5.75896 1.67637-2.896586 3.421164-5.804575 5.131746-8.666948l3.215894-5.074727c1.927256-3.022028 3.865915-6.032653 5.884403-8.997661l2.862373-4.093993c2.280776-3.250106 4.561552-6.488808 6.910752-9.659087l1.927255-2.508853c65.515291-86.532641 170.066062-147.908323 286.773371-168.4125 7.572176-1.505312 41.692585-5.70194 85.015925-5.70194 27.700025 0 82.769361 4.082589 90.523999 5.633517 116.809943 20.526984 221.372118 81.879858 286.898813 168.378288l1.972871 2.577277c2.372007 3.170279 4.652783 6.408981 6.910752 9.647682l2.873777 4.105397c1.984275 2.953605 3.945742 5.975633 5.872999 9.009065l3.227298 5.074727c1.756198 2.85097 3.421164 5.70194 5.120342 8.644141l3.295721 5.781767c1.539524 2.782547 3.044836 5.610709 4.561552 8.461679 1.071965 2.064102 2.143929 4.139608 3.170279 6.226518 1.391273 2.793951 2.725527 5.587901 4.025569 8.393256 1.026349 2.223757 2.041295 4.436109 3.010625 6.67127 1.208811 2.759739 2.394815 5.542286 3.535202 8.336236 0.946522 2.280776 1.870236 4.675591 2.782547 7.036194 1.060561 2.748335 2.098314 5.508074 3.090452 8.290621 0.855291 2.383411 1.653563 4.78963 2.463238 7.195848 1.026349 3.147471 1.88164 5.770363 2.679912 8.416064s1.493908 5.131746 2.200948 7.697619l0.387732 1.425485c0.627213 2.280776 1.254427 4.561552 1.813217 6.773904s1.140388 4.698399 1.653563 7.047598l0.570194 2.543065c0.513175 2.280776 1.003541 4.390494 1.425485 6.557231 0.524578 2.588681 0.96933 5.200169 1.414081 7.811658l0.478963 2.725528c0.35352 1.961467 0.695637 3.911531 0.992137 5.872998 0.364924 2.463238 0.661425 4.972092 0.96933 7.469541 0 0.079827 0.957926 7.686215 1.140388 9.191527 0.307905 3.136067 0.524578 6.31775 0.741252 9.510836 0 0 0.467559 6.215115 0.524579 7.355503 0.273693 5.70194 0.433347 11.40388 0.433347 17.10582l-0.079827 2.714123 0.079827 2.976413c0 5.70194-0.159654 11.40388-0.433347 17.025993-0.057019 1.140388-0.524578 7.366906-0.524579 7.366906-0.262289 3.672049-0.456155 6.602847-0.752656 9.499432-0.14825 1.482504-0.855291 7.184444-0.855291 7.184445l-0.239481 1.904448c-0.319309 2.588681-0.61581 5.08613-0.980734 7.572176-0.296501 1.950063-0.638617 3.900127-0.992137 5.85019l-0.513175 2.930798c-0.501771 2.942201-0.91231 5.279996-1.379869 7.594984s-0.946522 4.458917-1.448293 6.671269l-0.296501 1.357062c-0.798272 3.523799-1.32285 5.838787-1.904448 8.130967s-1.140388 4.424705-1.767601 6.637058l-0.433348 1.562331c-0.707041 2.565873-1.414081 5.131746-2.200949 7.686215-0.843887 2.782547-1.73339 5.519478-2.6457 8.267813s-1.653563 4.983496-2.49745 7.355503c-0.992138 2.782547-2.029891 5.542286-3.090451 8.302025q-1.368466 3.546607-2.782547 7.047597c-1.140388 2.782547-2.280776 5.55369-3.535203 8.324833-0.96933 2.280776-1.984275 4.447513-3.010624 6.659866-1.300042 2.805354-2.634296 5.610709-4.014166 8.381852-1.049157 2.109718-2.109718 4.17382-3.181682 6.249326-1.482504 2.839566-2.987817 5.70194-4.561552 8.484487-1.071965 1.904448-2.178141 3.831704-3.284318 5.70194-1.687774 2.896586-3.421164 5.793171-5.131746 8.655544l-3.215894 5.074727c-1.927256 3.022028-3.888723 6.044056-5.90721 9.031873l-2.839566 4.059781c-2.280776 3.250106-4.561552 6.488808-6.910751 9.670491l-1.950063 2.543065c-65.583714 86.578257-170.111678 147.942535-286.807582 168.435307-7.948504 1.585139-65.458271 4.58436-87.912511 4.58436z" fill="#F27108" p-id="1266"></path><path d="M508.402076 306.593314c-200.708288 1.52812-371.926142 134.748246-389.898657 303.286188-0.855291 8.176582-1.368466 16.706684-1.52812 25.373633 0.159654 8.815199 0.672829 17.356705 1.52812 25.521883 17.972515 168.537942 189.235985 301.769472 389.898657 303.343208l3.580818 0.079827 3.569415-0.079827c200.252133-1.516716 371.481391-134.428937 389.830233-302.579148 0.900907-8.302025 1.436889-17.10582 1.596543-26.069269-0.159654-9.123104-0.695637-17.938303-1.596543-26.228924-18.348843-168.161614-189.578101-301.062432-389.830233-302.590552l-3.569415-0.079827z" fill="#FF9D00" p-id="1267"></path><path d="M499.780743 393.046128c-65.766176 0-116.319576-40.654832-116.787135-41.053968a19.648885 19.648885 0 0 1-7.138829-14.482928 14.973294 14.973294 0 0 1 5.428247-11.540726 27.59739 27.59739 0 0 1 18.052342-6.842328 26.935965 26.935965 0 0 1 16.524222 5.758959c0.889503 0.718444 24.700804 19.443615 54.955297 26.445598a120.516204 120.516204 0 0 0 28.5097 3.626434c25.476268 0 47.360314-9.305566 68.845224-29.296568a28.5097 28.5097 0 0 1 18.713767-6.785309 29.06849 29.06849 0 0 1 15.771566 4.629976c4.116801 3.76328 6.454596 8.256409 6.739693 13.023231a18.63394 18.63394 0 0 1-5.200169 13.604828c-28.042141 25.681538-59.619485 39.91358-95.906631 42.912801z" fill="#167203" p-id="1268"></path><path d="M491.832238 379.042163a22.978818 22.978818 0 0 1-12.088113-3.421164 21.507718 21.507718 0 0 1-10.058222-13.878522 23.320935 23.320935 0 0 1 3.284318-18.052342c64.500345-101.334878 163.429004-156.541061 216.582489-186.202552l2.691315-1.493909 13.262713-6.625654 0.741252-4.561552a22.157739 22.157739 0 0 1 9.123104-14.471524 21.952469 21.952469 0 0 1 16.763703-3.523798c20.070829 3.546607 26.103481 16.261933 27.928103 23.526204 3.295721 18.862018-11.563534 28.851816-46.276945 47.029601l-3.044836 1.664967c-49.481435 27.107023-141.601978 77.546384-198.917879 169.917811-2.99922 4.960688-11.027552 10.001203-19.386596 10.001203z" fill="#167203" p-id="1269"></path><path d="M715.245651 801.898033a22.682317 22.682317 0 0 1-5.895806-2.79395c-8.438871-5.70194-9.031873-15.349622-1.368465-21.598949 4.367686-3.546607 106.170123-88.231819 51.226229-205.703187-3.729069-7.982716 2.007083-16.683876 12.806557-19.386596s22.591086 1.482504 26.320155 9.453816c63.166091 135.078959-54.738624 232.262824-59.801947 236.334009-5.90721 4.766822-15.22418 6.272134-23.286723 3.751877z m0 0M782.118003 513.607947a25.966635 25.966635 0 1 0-20.698042 15.657527 25.966635 25.966635 0 0 0 20.698042-15.657527z m0 0" fill="#FFFFFF" p-id="1270"></path><path d="M516.476023 279.406464a32.694924 32.694924 0 0 1-34.930085 26.992984c-169.917812-19.055883-230.267145-181.036595-239.789384-263.61209l-1.607947-14.289062a23.708667 23.708667 0 0 1 28.589527-25.407845l12.692518 3.181683c263.623494 74.638395 236.619106 271.54919 234.999755 273.13433z" fill="#60B71C" p-id="1271"></path></svg>